<?xml version="1.0" encoding="UTF-8"?>
<svg version="1.1" xmlns="http://www.w3.org/2000/svg" width="2000" height="2000">
<path d="M0 0 C660 0 1320 0 2000 0 C2000 660 2000 1320 2000 2000 C1340 2000 680 2000 0 2000 C0 1340 0 680 0 0 Z " fill="#FEFEFE" transform="translate(0,0)"/>
<path d="M0 0 C0.89874816 0.00092179 1.79749632 0.00184359 2.72347927 0.00279331 C3.75138073 0.00141865 4.77928219 0.00004398 5.83833218 -0.00137234 C6.975527 0.00222294 8.11272182 0.00581821 9.2843771 0.00952244 C10.47445873 0.00937641 11.66454037 0.00923038 12.89068508 0.00907993 C16.16326569 0.00965889 19.43580402 0.01468801 22.70837617 0.02165389 C26.1250196 0.02788815 29.54166379 0.02849128 32.95831203 0.0296793 C39.43232563 0.0327924 45.90632242 0.0410055 52.3803286 0.05102879 C59.74901216 0.06219058 67.11769651 0.06770054 74.48638642 0.07272422 C89.64814464 0.08318813 104.80988712 0.10078717 119.97163296 0.12304783 C121.06789936 4.48310704 122.1625158 8.8435764 123.25570583 13.20440769 C123.62662774 14.68311421 123.99797457 16.16171423 124.36978054 17.64019871 C126.47935264 26.03019119 128.54905073 34.42343688 130.40913296 42.87304783 C132.67610158 53.06179874 135.18811881 63.18544404 137.72163296 73.31054783 C137.9244891 74.12269749 138.12734524 74.93484715 138.33634853 75.7716074 C138.91625406 78.09099427 139.4981489 80.40987034 140.08100796 82.72851658 C140.25682903 83.43060749 140.43265011 84.1326984 140.6137991 84.8560648 C141.31893309 87.64954431 142.06008779 90.38841232 142.97163296 93.12304783 C145.76582949 94.54615593 145.76582949 94.54615593 149.25288296 95.75976658 C149.89424191 96.00063496 150.53560085 96.24150333 151.19639492 96.48967075 C153.28466861 97.27297394 155.37802372 98.04163353 157.47163296 98.81054783 C160.31610602 99.87084243 163.15671355 100.94102445 165.99507046 102.01757908 C166.69163754 102.28151463 167.38820461 102.54545017 168.10587978 102.81738377 C174.27926907 105.1849629 180.24561777 107.90824941 186.05952358 111.06323338 C189.52019335 112.89532248 189.52019335 112.89532248 193.2687521 112.42407322 C196.4009599 110.91639231 199.35131628 109.2245922 202.33491421 107.43945408 C203.25969318 106.88828922 203.25969318 106.88828922 204.20315456 106.32598972 C206.23211597 105.11577245 208.2580703 103.90061056 210.28413296 102.68554783 C211.70626253 101.83644208 213.12862967 100.98773412 214.5512228 100.13940525 C217.52093965 98.36798756 220.4896149 96.59484382 223.4574728 94.82031345 C229.98461927 90.91870676 236.52030885 87.03149447 243.05790615 83.14743137 C245.03420362 81.9726578 247.00945603 80.79614363 248.98457241 79.61938572 C250.23282483 78.87705194 251.4811141 78.13478011 252.72944546 77.39257908 C253.79308315 76.75940769 254.85672085 76.12623631 255.95258999 75.47387791 C261.91981943 71.95662888 267.9534794 68.55211139 273.97163296 65.12304783 C274.66796841 65.82160389 275.36430386 66.52015995 276.08174038 67.23988438 C282.66942471 73.84790916 289.25980022 80.45323954 295.85276699 87.05599403 C299.2415486 90.44997687 302.62940089 93.84487629 306.01508999 97.24194431 C309.28725007 100.52503184 312.56190244 103.8056149 315.83824062 107.08453274 C317.08292687 108.33105556 318.32673805 109.57845285 319.5696249 110.82676983 C325.34457264 116.62592468 331.08846064 122.38567672 337.32124233 127.69850254 C339.77823929 129.81927528 342.05956765 132.09903211 344.34663296 134.40039158 C345.26831264 135.32529392 346.18999233 136.25019627 347.13960171 137.20312595 C348.08366903 138.15554351 349.02767878 139.10801813 349.97163296 140.06054783 C350.94665682 141.04060093 351.92191575 142.02042023 352.89741421 143.00000095 C355.25779914 145.37207096 357.615802 147.74645643 359.97163296 150.12304783 C358.83348399 153.79652175 357.63460047 157.00595587 355.56538296 160.24804783 C355.07827847 161.02116306 354.59117397 161.7942783 354.08930874 162.59082127 C353.28855923 163.84427341 353.28855923 163.84427341 352.47163296 165.12304783 C346.11140916 175.23640113 339.92806611 185.44577691 333.810256 195.70678806 C333.04777202 196.98494176 332.28515823 198.26301804 331.52241421 199.54101658 C330.95791813 200.48701977 330.95791813 200.48701977 330.38201809 201.45213413 C328.13923159 205.20093371 325.8658879 208.92875131 323.56050014 212.63937473 C322.47628365 214.38489761 321.39773232 216.13379395 320.32075405 217.88379002 C318.99302829 220.03629099 317.65401211 222.18188082 316.30219936 224.31933689 C315.71487026 225.27678806 315.12754116 226.23423923 314.52241421 227.22070408 C314.00332485 228.0509409 313.4842355 228.88117771 312.94941616 229.73657322 C311.4843237 233.3124231 312.38743895 235.65182395 313.76850796 239.12988377 C314.08303921 239.78247166 314.39757046 240.43505955 314.72163296 241.10742283 C315.07556118 241.86555271 315.4294894 242.62368259 315.79414272 243.40478611 C316.60350313 245.101372 317.42500731 246.79220123 318.25654507 248.4780283 C320.66258372 253.54218822 322.27205016 258.0972711 323.16303921 263.64648533 C324.49255018 270.6914907 325.79768643 276.88974437 330.97163296 282.12304783 C340.58818456 287.5625295 352.62501836 288.96532408 363.37370205 290.7589426 C370.6094419 291.9763421 377.54124025 293.83211896 384.58076382 295.87402439 C388.99613117 297.15113935 393.442626 298.25989044 397.91303921 299.32617283 C398.62951122 299.49747715 399.34598324 299.66878147 400.08416653 299.84527683 C402.98378287 300.53562152 405.88482761 301.21985598 408.78584194 301.90429783 C410.95393687 302.41704368 413.121007 302.93395746 415.28803921 303.45117283 C416.55075649 303.74926853 417.81347378 304.04736423 419.11445522 304.35449314 C421.97163296 305.12304783 421.97163296 305.12304783 422.97163296 306.12304783 C423.06757521 307.70459631 423.09351256 309.29043907 423.09188747 310.87489414 C423.09326214 311.9027956 423.0946368 312.93069706 423.09605312 313.98974705 C423.09245785 315.12694187 423.08886257 316.2641367 423.08515835 317.43579197 C423.08530437 318.6258736 423.0854504 319.81595524 423.08560085 321.04209995 C423.0850219 324.31468057 423.07999277 327.5872189 423.0730269 330.85979104 C423.06679263 334.27643447 423.0661895 337.69307866 423.06500149 341.10972691 C423.06188839 347.5837405 423.05367528 354.05773729 423.043652 360.53174347 C423.03249021 367.90042703 423.02698024 375.26911138 423.02195656 382.63780129 C423.01149265 397.79955951 422.99389362 412.96130199 422.97163296 428.12304783 C422.26698375 428.2913863 421.56233454 428.45972477 420.83633232 428.63316441 C417.59080273 429.4089733 414.34554788 430.18592573 411.10029507 430.96289158 C409.99219227 431.22759251 408.88408947 431.49229343 407.7424078 431.7650156 C398.76812504 433.91492479 389.8285542 436.18238671 380.89851284 438.50811863 C368.53754578 441.72296563 356.16544539 444.86851738 343.72163296 447.74804783 C342.12557217 448.11929783 342.12557217 448.11929783 340.49726772 448.49804783 C333.36100853 450.12304783 333.36100853 450.12304783 329.97163296 450.12304783 C329.74991421 451.33347752 329.52819546 452.5439072 329.29975796 453.79101658 C327.85129571 460.29003799 325.26777556 466.30227939 322.72163296 472.43554783 C322.02360561 474.15547947 322.02360561 474.15547947 321.31147671 475.9101572 C318.5407216 482.65385455 315.51947247 489.11149902 311.98432827 495.49096775 C310.75080107 498.69700844 310.83596632 499.89766939 311.97163296 503.12304783 C313.24751332 505.48227985 314.55284039 507.72813537 315.97553921 509.99414158 C316.80039116 511.33744006 317.62475953 512.68103558 318.44868374 514.0249033 C318.86998562 514.70720005 319.2912875 515.3894968 319.7253561 516.09246922 C321.64388951 519.21836607 323.50899561 522.37516802 325.37397671 525.53320408 C326.11829975 526.78882277 326.86276791 528.04435546 327.60737514 529.29980564 C329.18897499 531.96882961 330.76856338 534.63903588 332.34760952 537.30957127 C336.59335995 544.48207351 340.87819522 551.62663349 345.24116421 558.72851658 C346.49687803 560.78262995 347.75172362 562.83727123 349.00633144 564.89206028 C349.81290077 566.20679887 350.62396583 567.51879053 351.43962002 568.82791233 C352.57074665 570.64370276 353.68658769 572.46808768 354.79975796 574.29492283 C355.75737026 575.84324802 355.75737026 575.84324802 356.73432827 577.42285252 C357.97163296 580.12304783 357.97163296 580.12304783 357.86347866 582.27319431 C356.80687272 584.46479113 355.60928441 585.84186091 353.87397671 587.54882908 C353.2365353 588.18111423 352.59909389 588.81339939 351.94233608 589.4648447 C351.27137905 590.11517673 350.60042202 590.76550877 349.90913296 591.43554783 C349.26524624 592.0742783 348.62135952 592.71300877 347.95796108 593.3710947 C342.99770388 598.25222517 342.99770388 598.25222517 340.43479824 600.42735386 C333.1806786 606.59630998 326.56107059 613.40860512 319.84663296 620.15039158 C318.49065137 621.50824131 317.13444656 622.86586815 315.77802944 624.22328281 C312.23147236 627.77363382 308.68793035 631.326979 305.14503384 634.8809824 C301.52005936 638.51623861 297.89220546 642.14861882 294.26460171 645.78125095 C287.16414395 652.89239085 280.06687199 660.00670113 272.97163296 667.12304783 C269.11730921 665.87708651 265.78390957 664.60070227 262.33882046 662.46289158 C261.46499722 661.92543308 260.59117397 661.38797459 259.69087124 660.83422947 C258.75227261 660.24891453 257.81367397 659.66359959 256.84663296 659.06054783 C254.7791474 657.78674867 252.71142871 656.51332786 250.64350796 655.24023533 C249.55618374 654.5683115 248.46885952 653.89638767 247.34858608 653.20410252 C240.44528247 648.94992669 233.50960567 644.74846888 226.57050991 640.55297947 C225.3929783 639.84072691 224.21548806 639.12840594 223.03803921 638.41601658 C222.45625408 638.06412769 221.87446896 637.71223881 221.27505398 637.34968662 C217.69680755 635.18123158 214.1348429 632.98838714 210.58357143 630.77604771 C208.8439791 629.69404512 207.1006933 628.61828728 205.3559103 627.54467869 C203.18885068 626.20949856 201.02862944 624.86313618 198.87641811 623.50415134 C197.90881557 622.91174656 196.94121304 622.31934177 195.94428921 621.70898533 C195.1013229 621.18353123 194.25835659 620.65807713 193.38984585 620.11670017 C190.3903546 618.88419847 189.03006136 619.1450426 185.97163296 620.12304783 C184.50061078 620.73846531 183.05186939 621.40938348 181.62788296 622.12695408 C180.80336636 622.53445896 179.97884975 622.94196384 179.1293478 623.36181736 C178.2523019 623.79864841 177.375256 624.23547947 176.47163296 624.68554783 C168.88280255 628.38542114 161.23890938 631.74708004 153.34663296 634.74804783 C152.00568569 635.26153782 152.00568569 635.26153782 150.63764858 635.78540134 C144.37151639 638.12304783 144.37151639 638.12304783 140.97163296 638.12304783 C140.87366421 639.16718845 140.77569546 640.21132908 140.67475796 641.28711033 C139.89737031 647.47631197 138.26152014 653.46300062 136.72163296 659.49804783 C136.43417202 660.64660252 136.14671108 661.7951572 135.85053921 662.97851658 C134.17334138 669.62139181 132.39240832 676.22445403 130.53413296 682.81836033 C127.85194956 692.36227945 125.51999137 701.9807311 123.22163296 711.62304783 C122.62519842 714.12112976 122.02779431 716.61896068 121.42738247 719.11608982 C121.05883047 720.64912922 120.69255092 722.18271724 120.32887173 723.7169199 C119.08411339 728.89808697 119.08411339 728.89808697 117.97163296 731.12304783 C77.71163296 731.12304783 37.45163296 731.12304783 -4.02836704 731.12304783 C-8.24245022 715.4707389 -12.38596274 699.90080197 -16.02836704 684.12304783 C-16.60232034 681.64121559 -17.1765583 679.15944918 -17.75102329 676.67773533 C-17.90041859 676.0288686 -18.04981388 675.38000187 -18.20373631 674.71147251 C-18.96561425 671.40991667 -19.74193143 668.11306603 -20.55009556 664.82251072 C-23.13075743 654.21266824 -23.13075743 654.21266824 -23.52055454 649.18945408 C-24.0156674 644.87676048 -24.39903358 642.59701291 -27.02836704 639.12304783 C-33.38847593 635.29231528 -40.66646012 633.40274918 -47.71293736 631.23388767 C-53.0869739 629.43330842 -58.16156438 627.04609313 -63.27836704 624.62304783 C-65.07414644 623.77696852 -66.87094137 622.93303954 -68.66899204 622.09179783 C-69.41697056 621.73537205 -70.16494907 621.37894627 -70.93559361 621.0117197 C-73.89633121 619.75242331 -73.89633121 619.75242331 -77.02836704 619.12304783 C-79.27367841 619.96640313 -79.27367841 619.96640313 -81.54399204 621.41992283 C-82.44899448 621.95681736 -83.35399693 622.49371189 -84.28642368 623.04687595 C-85.76743565 623.95083103 -85.76743565 623.95083103 -87.27836704 624.87304783 C-88.84349033 625.80794041 -88.84349033 625.80794041 -90.44023228 626.7617197 C-92.73745113 628.13459301 -95.03166801 629.51160809 -97.32280064 630.8945322 C-101.17631051 633.21709712 -105.04824277 635.50785972 -108.92289829 637.79492283 C-124.5610047 647.00716195 -124.5610047 647.00716195 -140.04008579 656.48242283 C-141.10154819 657.14306736 -142.1630106 657.80371189 -143.25663853 658.48437595 C-145.22012633 659.71161532 -147.17710658 660.94935059 -149.12626743 662.1992197 C-150.41585361 663.0045615 -150.41585361 663.0045615 -151.73149204 663.82617283 C-152.47044712 664.29700291 -153.2094022 664.76783298 -153.97074986 665.25293064 C-156.59697625 666.36349909 -157.37899156 666.1402475 -160.02836704 665.12304783 C-162.32251072 663.19639683 -162.32251072 663.19639683 -164.8694315 660.63842869 C-165.33669651 660.17320805 -165.80396152 659.7079874 -166.28538609 659.22866917 C-167.82816277 657.6888995 -169.35992387 656.13865004 -170.89164829 654.58789158 C-171.96716912 653.50931015 -173.04328432 652.43132112 -174.11996555 651.35389805 C-176.37813381 649.09112562 -178.63130511 646.82353422 -180.88066196 644.55200291 C-183.7451039 641.65944846 -186.61799025 638.77547942 -189.49427605 635.89470673 C-192.25488452 633.12890172 -195.010813 630.35845104 -197.76664829 627.58789158 C-198.28450712 627.06815203 -198.80236595 626.54841248 -199.33591747 626.01292324 C-204.54329519 620.78112914 -209.64696546 615.5107278 -214.45456028 609.90562534 C-217.03515458 606.98270654 -219.83806378 604.30553993 -222.65336704 601.61132908 C-223.86633174 600.4304328 -225.07855115 599.24877059 -226.29008579 598.0664072 C-228.17064881 596.2355409 -230.0552649 594.40984095 -231.95268345 592.5964365 C-233.80420655 590.82334367 -235.63622192 589.03195226 -237.46586704 587.23632908 C-238.32655796 586.42679531 -238.32655796 586.42679531 -239.20463657 585.60090733 C-240.77446079 584.04223728 -240.77446079 584.04223728 -243.02836704 581.12304783 C-243.01732301 577.51733868 -241.63736127 575.08682131 -239.71977329 572.09570408 C-239.22952671 571.31944675 -238.73928013 570.54318943 -238.23417759 569.74340916 C-237.69188511 568.89931492 -237.14959263 568.05522068 -236.59086704 567.18554783 C-235.3986477 565.29625594 -234.20867313 563.40554625 -233.02055454 561.51367283 C-232.05520786 559.97743259 -232.05520786 559.97743259 -231.07035923 558.4101572 C-226.59354118 551.20357204 -222.27565128 543.89960544 -217.939744 536.60766697 C-214.13473714 530.22162479 -210.2702785 523.88853783 -206.25102329 517.63476658 C-205.49065482 516.44122875 -204.73063791 515.24746687 -203.970994 514.05346775 C-202.54371885 511.81014478 -201.09402556 509.58849869 -199.62675571 507.37036228 C-198.9910062 506.37093601 -198.35525669 505.37150974 -197.70024204 504.34179783 C-197.13402134 503.4749033 -196.56780064 502.60800877 -195.98442173 501.7148447 C-194.4655382 497.5972585 -196.22660852 494.90953524 -197.93876743 491.09448338 C-198.24806187 490.48902683 -198.5573563 489.88357029 -198.87602329 489.25976658 C-199.22850132 488.54965427 -199.58097935 487.83954197 -199.94413853 487.10791111 C-200.73241977 485.52866341 -201.52239028 483.95025813 -202.31376743 482.37255955 C-204.67755065 477.49032297 -206.52092739 472.72099078 -207.98930454 467.49414158 C-208.3218021 466.37499363 -208.65429966 465.25584568 -208.9968729 464.10278416 C-209.62866033 461.91548481 -210.20053906 459.70971945 -210.70243931 457.48901463 C-211.73986209 454.00337365 -212.70480289 451.93862544 -215.02836704 449.12304783 C-217.82170685 448.01112851 -220.25656609 447.23946109 -223.15165806 446.56689548 C-223.95096493 446.36370323 -224.7502718 446.16051098 -225.57380009 445.95116138 C-227.23921623 445.53017121 -228.90694897 445.11824777 -230.57678509 444.71514606 C-232.85829837 444.16412227 -235.13227826 443.59029403 -237.40518284 443.00491428 C-241.00049419 442.08195419 -244.60105248 441.18212079 -248.20448399 440.2914362 C-250.54261449 439.71345088 -252.8799284 439.13225415 -255.21708775 438.55035496 C-260.15350778 437.32186806 -265.09086884 436.09719309 -270.02836704 434.87304783 C-275.81363605 433.43856851 -281.5984998 432.00249205 -287.38240147 430.56250858 C-289.68310526 429.99056721 -291.98449874 429.42146302 -294.2859354 428.85247898 C-295.68318642 428.50498066 -297.08040506 428.15735209 -298.47758579 427.80957127 C-299.69792515 427.50710484 -300.9182645 427.2046384 -302.17558384 426.89300632 C-305.02836704 426.12304783 -305.02836704 426.12304783 -307.02836704 425.12304783 C-307.02836704 384.86304783 -307.02836704 344.60304783 -307.02836704 303.12304783 C-286.35911238 297.3815882 -286.35911238 297.3815882 -279.27836704 295.74804783 C-278.01379673 295.45124119 -278.01379673 295.45124119 -276.72367954 295.14843845 C-273.8261284 294.46945389 -270.92728452 293.79617391 -268.02836704 293.12304783 C-265.60643261 292.55819845 -263.18456112 291.99307911 -260.76274204 291.42773533 C-256.89756527 290.52579525 -253.03235994 289.6239789 -249.16703892 288.7226572 C-237.47036339 285.99533433 -237.47036339 285.99533433 -225.77836704 283.24804783 C-224.90953892 283.04502048 -224.04071079 282.84199314 -223.14555454 282.63281345 C-218.97891513 281.69449899 -218.97891513 281.69449899 -215.02836704 280.12304783 C-214.00117756 277.32134239 -213.06298943 274.52560914 -212.15336704 271.68554783 C-208.82571543 261.67851982 -204.55478696 252.22370399 -200.02885532 242.70727634 C-199.52595982 241.64823093 -199.02306431 240.58918552 -198.50492954 239.49804783 C-198.05198521 238.5570322 -197.59904087 237.61601658 -197.13237095 236.64648533 C-195.69768204 233.48112748 -195.69768204 233.48112748 -195.02836704 230.12304783 C-196.00140854 227.72727404 -196.00140854 227.72727404 -197.61430454 225.28320408 C-198.20687046 224.31729343 -198.79943638 223.35138279 -199.40995884 222.35620213 C-200.06778355 221.30988621 -200.72560825 220.26357029 -201.40336704 219.18554783 C-202.43565824 217.506856 -203.46789409 215.82812833 -204.49759007 214.14784336 C-205.22110373 212.96773951 -205.94603831 211.78850579 -206.6723032 210.61009312 C-210.42329787 204.51536182 -214.03646222 198.34258212 -217.63871861 192.15915012 C-223.9183483 181.38204878 -230.26861686 170.64932115 -236.70805454 159.96679783 C-237.10991978 159.2939072 -237.51178501 158.62101658 -237.92582798 157.92773533 C-238.87675413 156.37121493 -239.88865545 154.85224835 -240.91117954 153.34179783 C-242.02836704 151.12304783 -242.02836704 151.12304783 -241.76843452 149.17758751 C-240.93760892 146.8710895 -240.03307208 145.75523913 -238.30447483 144.03166294 C-237.72567066 143.44728962 -237.14686649 142.8629163 -236.5505228 142.26083469 C-235.91213474 141.63166142 -235.27374668 141.00248814 -234.61601353 140.354249 C-233.9459679 139.682159 -233.27592228 139.01006901 -232.58557224 138.31761265 C-230.36405839 136.09308625 -228.1319697 133.87950403 -225.89946079 131.66601658 C-224.35005489 130.11966943 -222.80124006 128.57272983 -221.25299168 127.02522373 C-218.00158204 123.77842123 -214.74532032 120.53659443 -211.48515415 117.29858494 C-207.32136039 113.16295572 -203.16618019 109.01881078 -199.01420593 104.87131882 C-195.04160189 100.90389466 -191.06433095 96.94116157 -187.08696079 92.97851658 C-186.33469149 92.22812799 -185.58242218 91.47773941 -184.80735683 90.70461178 C-182.65629524 88.56048881 -180.50190459 86.41976844 -178.34648228 84.28003025 C-177.72226383 83.65692966 -177.09804539 83.03382908 -176.45491123 82.39184666 C-172.69239078 78.66522093 -168.8132662 75.13221703 -164.78354073 71.69565392 C-163.17144092 70.25123961 -161.77153993 68.74288592 -160.34086704 67.12304783 C-159.19617954 66.13304783 -159.19617954 66.13304783 -158.02836704 65.12304783 C-154.32731794 65.46262509 -151.75296356 66.66411758 -148.64946079 68.64257908 C-147.8218021 69.16368259 -146.99414341 69.68478611 -146.14140415 70.22168064 C-145.25847691 70.78725681 -144.37554966 71.35283298 -143.46586704 71.93554783 C-141.56037324 73.13596777 -139.6541056 74.33516012 -137.74711704 75.53320408 C-136.30465611 76.44223484 -136.30465611 76.44223484 -134.83305454 77.36962986 C-130.74346877 79.92633294 -126.60899665 82.40438137 -122.46586704 84.87304783 C-114.04895715 89.90106432 -105.65922508 94.9727602 -97.27836704 100.06054783 C-96.67636478 100.42571507 -96.07436253 100.7908823 -95.45411777 101.16711521 C-94.27889256 101.8800652 -93.10396349 102.59350363 -91.92935276 103.30746555 C-90.2788748 104.30913514 -88.6253429 105.30576725 -86.97172642 106.30224705 C-85.1536507 107.42693257 -83.35720704 108.58862121 -81.60063267 109.80712986 C-79.34352775 111.42684048 -79.34352775 111.42684048 -76.02836704 113.12304783 C-73.54162383 112.42959936 -73.54162383 112.42959936 -71.02836704 111.12304783 C-70.21875523 110.75155613 -69.40914341 110.38006443 -68.5749979 109.99731541 C-67.72300816 109.59150242 -66.87101841 109.18568943 -65.99321079 108.76757908 C-32.77457293 93.12304783 -32.77457293 93.12304783 -25.02836704 93.12304783 C-24.93660694 92.54660526 -24.84484684 91.9701627 -24.75030613 91.37625217 C-23.14433568 81.92395616 -20.79776624 72.66533421 -18.49321079 63.36523533 C-18.04986819 61.56735983 -17.60672062 59.76943624 -17.16375828 57.97146702 C-16.240538 54.22750121 -15.31489048 50.48414631 -14.3874979 46.74121189 C-13.1968353 41.9348195 -12.01247848 37.12689861 -10.82990265 32.31851101 C-9.9188428 28.61715143 -9.00443998 24.91662415 -8.08900738 21.21634388 C-7.65056277 19.44230339 -7.21318645 17.66799855 -6.77688503 15.89342976 C-6.17003392 13.42727958 -5.55868715 10.96228809 -4.94609165 8.49755955 C-4.67567554 7.39275997 -4.67567554 7.39275997 -4.39979649 6.26564121 C-2.87691363 0.17452363 -2.87691363 0.17452363 0 0 Z " fill="#149D80" transform="translate(942.0283670425415,633.8769521713257)"/>
<path d="M0 0 C1.30469238 0.00418945 2.60938477 0.00837891 3.95361328 0.01269531 C55.06490033 0.46368413 100.0454613 21.16463138 135.86352539 57.05517578 C171.43378571 93.65327943 184.51525018 140.79542154 184.03125 190.515625 C183.85944935 201.72147609 182.55757824 212.45130167 179.75 223.3125 C179.56808105 224.02728516 179.38616211 224.74207031 179.19873047 225.47851562 C177.95584239 230.18349678 176.43048747 234.74748113 174.75 239.3125 C174.47172363 240.08126465 174.19344727 240.8500293 173.90673828 241.64208984 C160.73065942 277.59304595 137.80170546 307.07977533 106.75 329.3125 C106.15993164 329.73660156 105.56986328 330.16070313 104.96191406 330.59765625 C79.19392588 348.82929763 45.37362872 360.77650629 13.75 361.3125 C12.95513184 361.33683105 12.16026367 361.36116211 11.34130859 361.38623047 C-22.09353859 362.35806842 -52.81126672 355.01715384 -82.25 339.3125 C-82.86117676 338.99023438 -83.47235352 338.66796875 -84.10205078 338.3359375 C-96.3676401 331.81725541 -106.84905017 323.73546826 -117.04296875 314.33203125 C-118.96482152 312.57345093 -120.92647489 310.90430225 -122.9375 309.25 C-152.70466515 283.89313058 -172.62515659 238.77917294 -176.05078125 200.34619141 C-179.29362342 150.96438162 -166.85082623 102.35459447 -133.80078125 64.5078125 C-132.27935267 62.81286562 -130.74754621 61.12714799 -129.203125 59.453125 C-127.62097392 57.71908742 -126.14053119 55.96550618 -124.6875 54.125 C-121.49909551 50.44607174 -118.00004155 47.40777239 -114.25 44.3125 C-112.78433594 43.09046875 -112.78433594 43.09046875 -111.2890625 41.84375 C-91.88174409 25.95235542 -68.83895384 12.16701282 -44.25 6.3125 C-43.56244629 6.1470166 -42.87489258 5.9815332 -42.16650391 5.81103516 C-36.87964927 4.5509617 -31.58298026 3.36107121 -26.25 2.3125 C-25.34942871 2.13082275 -24.44885742 1.94914551 -23.52099609 1.76196289 C-15.65130335 0.29693702 -7.99449872 -0.0354246 0 0 Z " fill="#FEFEFE" transform="translate(995.25,818.6875)"/>
<path d="M0 0 C1.53515478 0.00502957 3.07031116 0.00958988 4.60546875 0.01367188 C8.3203467 0.02455161 12.03516259 0.04173423 15.75 0.0625 C15.77968652 4.39581826 15.79702361 8.72910954 15.8125 13.0625 C15.82087891 14.26390625 15.82925781 15.4653125 15.83789062 16.703125 C15.87687669 31.36188579 14.788492 45.55853347 12.4375 60 C12.32540192 60.69893372 12.21330383 61.39786743 12.09780884 62.11798096 C10.41904349 72.55329223 8.64269087 82.88387109 5.75 93.0625 C5.48348633 94.0122168 5.21697266 94.96193359 4.94238281 95.94042969 C-5.10800748 131.28520765 -20.38517267 162.80159154 -45.25 190.0625 C-46.42755859 191.36574219 -46.42755859 191.36574219 -47.62890625 192.6953125 C-58.50494718 204.14183951 -71.71643659 213.37028557 -85.45556641 221.05371094 C-87.18519441 222.0260678 -88.8958242 223.03198434 -90.60546875 224.0390625 C-102.54216176 230.80993244 -115.35481172 235.45526437 -128.25 240.0625 C-129.17216309 240.39668945 -130.09432617 240.73087891 -131.04443359 241.07519531 C-165.64060387 253.3734803 -202.83181685 256.24683249 -239.25 256.0625 C-239.72238824 231.71452021 -239.56272403 208.11192639 -235.25 184.0625 C-235.04632812 182.92248535 -234.84265625 181.7824707 -234.6328125 180.60791016 C-224.6273596 126.83632105 -199.78032932 74.39307414 -153.9375 42.47705078 C-109.24484541 12.1737786 -53.44078919 -0.30793236 0 0 Z " fill="#149D80" transform="translate(1260.25,333.9375)"/>
<path d="M0 0 C2.39591642 -0.02768068 4.7914953 -0.04715505 7.1875 -0.0625 C7.84169922 -0.07087891 8.49589844 -0.07925781 9.16992188 -0.08789062 C42.50833401 -0.24589258 77.43603776 8.96962299 103 31 C103.73476563 31.57878906 104.46953125 32.15757812 105.2265625 32.75390625 C124.7335868 48.71106571 134.10676611 74.29344021 139.6875 98.0625 C139.90253174 98.97314209 140.11756348 99.88378418 140.33911133 100.82202148 C142.72749115 111.4430959 143.14893639 121.82976021 143.0625 132.6875 C143.05798828 133.78255859 143.05347656 134.87761719 143.04882812 136.00585938 C143.03719156 138.67063309 143.02084564 141.33528517 143 144 C102.36007701 144.95873999 62.70072526 136.45541441 32.4375 107.8125 C15.2907092 90.06301005 6.48907904 65.84102356 2 42 C1.81614746 41.03392822 1.63229492 40.06785645 1.44287109 39.07250977 C-0.03164769 30.56632248 -0.2383416 22.30582098 -0.125 13.6875 C-0.11493218 12.34961621 -0.10581316 11.01172493 -0.09765625 9.67382812 C-0.07437244 6.44902038 -0.0416741 3.22461346 0 0 Z " fill="#149D80" transform="translate(859,439)"/>
</svg>
