<svg xmlns="http://www.w3.org/2000/svg" viewBox="0 0 100 120">
  <defs>
    <linearGradient id="g" x1="0" y1="0" x2="1" y2="1">
      <stop offset="0%" stop-color="#2BA882"/>
      <stop offset="100%" stop-color="#1E8E6E"/>
    </linearGradient>
  </defs>
  <g fill="url(#g)">
    <!-- Right leaf -->
    <path d="M56 36 C58 22, 66 8, 62 4 C58 0, 52 16, 51 30 C51 33, 53 36, 56 36Z"/>
    <!-- Left leaf -->
    <path d="M44 36 C42 22, 34 8, 38 4 C42 0, 48 16, 49 30 C49 33, 47 36, 44 36Z"/>
    <!-- Stem -->
    <rect x="48" y="30" width="4" height="10" rx="2"/>
    <!-- Gear body -->
    <path d="M50.0,44.0 L57.0,36.7 L63.8,38.7 L65.6,48.7 L69.8,52.2 L79.9,52.0 L83.3,58.2 L77.5,66.5 L78.0,72.0 L85.3,79.0 L83.3,85.8 L73.3,87.6 L69.8,91.8 L70.0,101.9 L63.8,105.3 L55.5,99.5 L50.0,100.0 L43.0,107.3 L36.2,105.3 L34.4,95.3 L30.2,91.8 L20.1,92.0 L16.7,85.8 L22.5,77.5 L22.0,72.0 L14.7,65.0 L16.7,58.2 L26.7,56.4 L30.2,52.2 L30.0,42.1 L36.2,38.7 L44.5,44.5Z"/>
    <!-- Inner circle cutout -->
  </g>
  <circle cx="50" cy="72" r="16" fill="white"/>
</svg>
