<?xml version="1.0" encoding="UTF-8"?>
<svg version="1.1" xmlns="http://www.w3.org/2000/svg" width="2000" height="2000">
<path d="M0 0 C660 0 1320 0 2000 0 C2000 660 2000 1320 2000 2000 C1340 2000 680 2000 0 2000 C0 1340 0 680 0 0 Z " fill="#FEFEFE" transform="translate(0,0)"/>
<path d="M0 0 C77.55 0 155.1 0 235 0 C239.98365274 19.93461098 244.87502992 39.86865619 249.53540039 59.87719727 C256.02167295 87.85052384 256.02167295 87.85052384 263.0625 115.6875 C265.24629555 123.94231753 267.24088022 132.22106296 269.09692383 140.55541992 C270.97211489 148.9631936 272.98689768 157.33498245 275.03320312 165.70263672 C276.18657367 170.45221661 277.30335463 175.15665603 278 180 C279.19882813 180.22945312 280.39765625 180.45890625 281.6328125 180.6953125 C288.24242802 182.17184649 294.53369376 184.52907742 300.875 186.875 C301.52861511 187.1154303 302.18223022 187.3558606 302.85565186 187.60357666 C318.85228082 193.50894439 334.38603249 200.39909417 349.77102661 207.74639893 C352.34679566 208.97592978 354.92637641 210.19737845 357.5055542 211.41973877 C359.33574682 212.29375449 361.15739764 213.18394225 362.97900391 214.07568359 C364.08679199 214.60371582 365.19458008 215.13174805 366.3359375 215.67578125 C367.31095215 216.14927002 368.2859668 216.62275879 369.29052734 217.1105957 C372.48667224 218.15975374 373.83257111 218.07742511 377 217 C379.13969357 215.9048345 381.23832765 214.72793853 383.3046875 213.5 C383.90572296 213.14542725 384.50675842 212.79085449 385.12600708 212.42553711 C387.04640683 211.29039877 388.96069903 210.14538685 390.875 209 C392.12200996 208.26106716 393.36940306 207.52278052 394.6171875 206.78515625 C401.55181461 202.6792908 408.45885639 198.52722251 415.36734009 194.37757874 C422.31400555 190.20692569 429.28143601 186.07142288 436.25 181.9375 C437.65300765 181.10483938 439.05600218 180.27215664 440.45898438 179.43945312 C449.13715079 174.289302 457.81806139 169.14378928 466.5 164 C469.80976189 162.03862284 473.11949129 160.07719088 476.42919922 158.11572266 C478.94874952 156.62269168 481.46867075 155.13028858 483.98876953 153.63818359 C487.48340609 151.56900918 490.97717005 149.49836678 494.47058105 147.42712402 C496.53602113 146.20319078 498.60246501 144.98096491 500.66894531 143.75878906 C506.44663027 140.33672391 512.20658125 136.89920098 517.88671875 133.31640625 C518.72710693 132.78829346 519.56749512 132.26018066 520.43334961 131.71606445 C521.92184916 130.77408534 523.40379101 129.82161794 524.87719727 128.85620117 C529.44624834 125.9629918 529.44624834 125.9629918 531.91009521 126.12765503 C534.79250223 127.33079753 536.44726885 129.09607992 538.64160156 131.31689453 C540.01387909 132.69435349 540.01387909 132.69435349 541.41387939 134.09963989 C542.40620443 135.11062234 543.39845097 136.12168185 544.390625 137.1328125 C545.4187615 138.16909336 546.44764322 139.20463535 547.47723389 140.23947144 C550.18991906 142.96928034 552.89393007 145.70751476 555.59576416 148.44805908 C559.90326122 152.81467834 564.22324723 157.16892788 568.54418182 161.5222435 C570.0424141 163.03427274 571.53666025 164.55015051 573.03033447 166.06668091 C573.9577948 167.00389984 574.88525513 167.94111877 575.84082031 168.90673828 C577.04850067 170.13132248 577.04850067 170.13132248 578.28057861 171.38064575 C580.37457094 173.39758499 582.48595994 175.29856203 584.68841553 177.19039917 C589.74037538 181.57678834 594.42892862 186.30457233 599.14453125 191.046875 C600.13741998 192.0416873 601.13053988 193.03626892 602.12387085 194.03063965 C604.24779384 196.15770258 606.37015843 198.28630359 608.49130249 200.4161377 C611.85184471 203.79030456 615.21628935 207.1605625 618.58129883 210.53027344 C626.33007373 218.29104504 634.07380687 226.05684092 641.81748962 233.82269287 C648.92001126 240.94544349 656.02361676 248.06710434 663.1312933 255.18471146 C666.46980741 258.52817951 669.80587481 261.87406337 673.14002991 265.22187805 C675.22127271 267.31062902 677.3046292 269.39726219 679.38853836 271.48335266 C680.80089403 272.89844455 682.21072505 274.31605485 683.62045288 275.73376465 C688.58306486 280.69678453 693.63958307 285.46793376 699 290 C697.75052431 293.28837812 696.3539948 296.29305547 694.55859375 299.31640625 C694.06649414 300.1480127 693.57439453 300.97961914 693.06738281 301.83642578 C692.26059082 303.18583252 692.26059082 303.18583252 691.4375 304.5625 C690.86741211 305.52140137 690.29732422 306.48030273 689.70996094 307.46826172 C683.30315618 318.2177614 676.7990485 328.90863129 670.28993225 339.59635925 C666.70712182 345.47925042 663.13244872 351.36706605 659.55874634 357.25549316 C657.78806778 360.17305778 656.01714853 363.09047625 654.24609375 366.0078125 C653.71981636 366.87472717 653.71981636 366.87472717 653.1829071 367.75915527 C651.06956834 371.23986996 648.95458781 374.71958092 646.83827209 378.19848633 C645.07912598 381.09031996 643.3206663 383.98257058 641.5625 386.875 C641.21581268 387.44528931 640.86912537 388.01557861 640.51193237 388.60314941 C636.414529 395.34560052 632.33496521 402.09837015 628.28125 408.8671875 C627.88875061 409.52229813 627.49625122 410.17740875 627.09185791 410.85237122 C625.15083854 414.09324553 623.21301954 417.33597186 621.28027344 420.58178711 C618.14074674 425.84435864 614.98919313 431.08555801 611.609375 436.19921875 C611.12654053 436.93495117 610.64370605 437.67068359 610.14624023 438.42871094 C609.29857151 439.70541206 608.43509901 440.97186532 607.55102539 442.22363281 C605.67570734 445.04770025 605.00186166 446.85834432 604.95703125 450.26953125 C606.35308051 455.26289095 608.536603 459.63642741 610.875 464.25 C620.11020642 483.07241727 627.60085789 502.51646236 634.625 522.25 C634.88924774 522.98755524 635.15349548 523.72511047 635.42575073 524.48501587 C636.17966105 526.59672668 636.92360382 528.71166487 637.6640625 530.828125 C638.09154785 532.0440332 638.5190332 533.25994141 638.95947266 534.51269531 C640.01947396 538.06526655 640.5740706 541.32819482 641 545 C642.55750977 545.33849976 642.55750977 545.33849976 644.14648438 545.68383789 C655.66894673 548.20627376 667.1386637 550.92110094 678.59521484 553.72680664 C681.49623556 554.43657898 684.39845613 555.14128616 687.30078125 555.84570312 C689.2110123 556.31219379 691.12117099 556.77898092 693.03125 557.24609375 C693.86619995 557.44835068 694.7011499 557.6506076 695.56140137 557.85899353 C701.22185871 559.25104087 706.83376669 560.78506441 712.44433594 562.36328125 C721.32587628 564.85407534 730.25697237 567.10567382 739.2168808 569.29550362 C741.94481534 569.96229036 744.67186451 570.63260261 747.39874268 571.30369568 C753.18176279 572.72628788 758.96580298 574.14470178 764.75 575.5625 C771.47969949 577.21214332 778.20894374 578.86360264 784.93714142 580.5193615 C787.59622477 581.17281565 790.25606113 581.82313452 792.91595459 582.47328186 C794.57519234 582.88120444 796.23439418 583.28927311 797.89355469 583.69750977 C798.60975479 583.87163895 799.3259549 584.04576813 800.06385803 584.22517395 C807.10802676 585.96494959 814.00565583 588.00161595 821 590 C821 667.55 821 745.1 821 825 C791.24780326 833.01020682 791.24780326 833.01020682 779.921875 835.625 C775.28458339 836.70040845 770.64951797 837.78505141 766.015625 838.875 C765.30686722 839.041707 764.59810944 839.208414 763.86787415 839.38017273 C761.6618883 839.89916377 759.45594251 840.41832482 757.25 840.9375 C756.51558685 841.11028473 755.78117371 841.28306946 755.02450562 841.46109009 C750.01603632 842.63945225 745.00786163 843.81905804 740 845 C738.81164551 845.28020996 737.62329102 845.56041992 736.39892578 845.84912109 C724.3481017 848.69717666 712.34025339 851.66465604 700.36694336 854.82299805 C695.05663797 856.21862308 689.74143818 857.57606766 684.39697266 858.83520508 C682.71283286 859.23740961 681.0326653 859.65661809 679.35693359 860.0925293 C674.1068625 861.42446811 669.01842154 862.24062647 663.625 862.77734375 C655.96004556 863.73981594 648.56427274 864.68224852 642 869 C636.61603232 876.23199773 634.69326529 885.21555229 632.59614563 893.84727478 C630.93270457 900.64149295 628.39284178 906.91957645 625.5625 913.3125 C624.89009277 914.87254761 624.89009277 914.87254761 624.20410156 916.46411133 C619.87198076 926.46411603 615.32713508 936.3710672 610.7265625 946.25 C610.27700195 947.21550781 609.82744141 948.18101562 609.36425781 949.17578125 C608.45025257 951.0679095 607.49565027 952.94092643 606.50292969 954.79296875 C606.03532227 955.66566406 605.56771484 956.53835938 605.0859375 957.4375 C604.66103027 958.19933594 604.23612305 958.96117187 603.79833984 959.74609375 C602.76814136 962.65459295 603.06305328 964.07225026 604 967 C604.95188212 968.91859429 605.98124951 970.79965926 607.0625 972.6484375 C607.69542969 973.73769531 608.32835937 974.82695313 608.98046875 975.94921875 C609.98013672 977.64498047 609.98013672 977.64498047 611 979.375 C611.63550781 980.46683594 612.27101563 981.55867188 612.92578125 982.68359375 C616.76223397 989.25707486 620.66314544 995.79072095 624.58499146 1002.3134613 C628.70855307 1009.17220461 632.79237726 1016.0543368 636.875 1022.9375 C637.69983141 1024.32749673 638.52470217 1025.71747012 639.34960938 1027.10742188 C641.05451243 1029.98021674 642.75925038 1032.85310949 644.46386719 1035.72607422 C648.08288609 1041.82527807 651.704001 1047.92323719 655.32504272 1054.02124023 C656.50103524 1056.00174346 657.67692602 1057.98230705 658.8527832 1059.96289062 C662.07457587 1065.38952824 665.29644411 1070.81612035 668.52001953 1076.24169922 C668.94016327 1076.94884064 669.36030701 1077.65598206 669.79318237 1078.384552 C670.63907507 1079.80816016 671.48504216 1081.23172411 672.33108521 1082.65524292 C674.37793624 1086.09968868 676.42302783 1089.54515246 678.46386719 1092.99316406 C681.76156427 1098.56275958 685.06441269 1104.12716599 688.44921875 1109.64453125 C689.17709595 1110.84251343 689.17709595 1110.84251343 689.91967773 1112.06469727 C690.76958098 1113.46082205 691.62888823 1114.85129362 692.50024414 1116.23413086 C695.05836792 1120.46213295 695.05836792 1120.46213295 694.78446865 1122.98614597 C693.84910452 1125.38737235 692.77996194 1126.48395089 690.87037659 1128.20603943 C690.20778052 1128.814087 689.54518446 1129.42213457 688.86250973 1130.04860783 C688.13516912 1130.70344371 687.4078285 1131.35827959 686.65844727 1132.03295898 C685.08972819 1133.47720702 683.52342535 1134.92408292 681.95925903 1136.3732605 C681.14064014 1137.13155529 680.32202126 1137.88985008 679.47859573 1138.6711235 C675.43063539 1142.47456736 671.50125181 1146.39319061 667.57788086 1150.32446289 C666.76923867 1151.13416755 665.96059649 1151.9438722 665.12744999 1152.77811337 C663.44265499 1154.46747897 661.75880532 1156.15778782 660.07584953 1157.84898567 C657.39058313 1160.54727708 654.70197581 1163.24220232 652.0125885 1165.93638611 C646.31802534 1171.64223554 640.62745442 1177.35205521 634.9375 1183.0625 C628.30363117 1189.72016339 621.66798629 1196.3760366 615.02816963 1203.02776909 C612.39169916 1205.67067428 609.7582782 1208.31659166 607.12498474 1210.96266174 C605.50266128 1212.58861881 603.88019665 1214.21443503 602.25756836 1215.84008789 C601.17660637 1216.92879936 601.17660637 1216.92879936 600.07380676 1218.039505 C596.13459928 1221.97911801 592.08886304 1225.71711286 587.87094975 1229.35587406 C585.08687441 1231.80242319 582.46990253 1234.39795841 579.859375 1237.02709961 C579.30225327 1237.58407532 578.74513153 1238.14105103 578.17112732 1238.71490479 C576.36169931 1240.52501989 574.55582218 1242.338632 572.75 1244.15234375 C571.48369957 1245.42051264 570.21717567 1246.68845842 568.95043945 1247.95619202 C565.64061579 1251.26980711 562.3338081 1254.58641572 559.02764893 1257.90368652 C555.64396961 1261.29765305 552.25740585 1264.6887388 548.87109375 1268.08007812 C542.24459178 1274.7172578 535.62127682 1281.35760795 529 1288 C523.24409473 1284.89027065 517.50257065 1281.78760833 511.92578125 1278.36328125 C510.86198242 1277.71302979 509.79818359 1277.06277832 508.70214844 1276.39282227 C507.58356445 1275.70631592 506.46498047 1275.01980957 505.3125 1274.3125 C502.84650272 1272.80490691 500.37874549 1271.30021975 497.91015625 1269.796875 C497.27246307 1269.40850967 496.6347699 1269.02014435 495.97775269 1268.62001038 C488.43913331 1264.03806991 480.84346306 1259.55271498 473.25 1255.0625 C464.87280847 1250.10695245 456.51133826 1245.14281444 448.29858398 1239.91748047 C440.37025365 1234.91157081 432.25853077 1230.2029155 424.18795776 1225.431427 C415.59388126 1220.34835953 407.03568673 1215.22077167 398.5625 1209.9375 C396.9271754 1208.92302866 395.29176178 1207.90870079 393.65625 1206.89453125 C391.29083293 1205.42704155 388.92877378 1203.95508218 386.57421875 1202.47021484 C384.24640516 1201.00592984 381.90629997 1199.56351329 379.5625 1198.125 C378.88195557 1197.68921631 378.20141113 1197.25343262 377.50024414 1196.80444336 C374.61141078 1195.054221 372.64639047 1193.95454845 369.22583008 1194.19506836 C365.51339425 1195.12142126 362.23553033 1196.56629905 358.8203125 1198.24609375 C358.13944077 1198.57274521 357.45856903 1198.89939667 356.75706482 1199.23594666 C355.30004202 1199.93498597 353.84444442 1200.63700236 352.39016724 1201.34173584 C348.55266824 1203.19810821 344.7007377 1205.02389458 340.84765625 1206.84765625 C339.69972847 1207.39111694 339.69972847 1207.39111694 338.52861023 1207.94555664 C321.58675917 1215.93442845 304.12359362 1222.61108742 286.55078125 1229.06640625 C285.59856689 1229.41646729 284.64635254 1229.76652832 283.6652832 1230.12719727 C281.11935313 1230.96091532 278.63587424 1231.53583029 276 1232 C275.86851562 1233.50433594 275.86851562 1233.50433594 275.734375 1235.0390625 C274.95633999 1241.23341812 273.3184617 1247.24656593 271.78125 1253.28662109 C271.26034745 1255.33432349 270.74671615 1257.38373463 270.234375 1259.43359375 C268.65337256 1265.72189074 267.01849147 1271.99031981 265.25595856 1278.23035431 C262.69125932 1287.31590288 260.34072177 1296.44147196 258.10545349 1305.61305237 C257.50987064 1308.05645985 256.91065847 1310.49895524 256.31066895 1312.94128418 C255.03741389 1318.12678219 253.76835899 1323.31330257 252.5 1328.5 C251.02646881 1334.52570761 249.5510604 1340.55094371 248.07115173 1346.5750885 C247.49022655 1348.94368405 246.91255519 1351.3130558 246.33508301 1353.68249512 C244.09172109 1362.84315603 241.67281923 1371.94049265 239.10906982 1381.01672363 C237.52583234 1386.6450558 236.13290313 1392.3196882 234.75 1398 C234.2469467 1400.06302668 233.74184824 1402.12555611 233.234375 1404.1875 C233.02006836 1405.06792969 232.80576172 1405.94835938 232.58496094 1406.85546875 C232 1409 232 1409 231 1411 C153.45 1411 75.9 1411 -4 1411 C-9.73934309 1390.33836486 -9.73934309 1390.33836486 -11.375 1383.25 C-11.57287109 1382.40840332 -11.77074219 1381.56680664 -11.97460938 1380.69970703 C-13.22800292 1375.35754562 -14.45984518 1370.01039205 -15.6953125 1364.6640625 C-16.29637634 1362.06759126 -16.89778738 1359.47120462 -17.5 1356.875 C-17.65029663 1356.22665192 -17.80059326 1355.57830383 -17.95544434 1354.91030884 C-19.91699204 1346.46290918 -21.98066554 1338.05704769 -24.23095703 1329.68237305 C-27.33848304 1318.08187427 -29.99196505 1306.36787528 -32.6953125 1294.66796875 C-33.29645783 1292.07021482 -33.89789892 1289.47253228 -34.5 1286.875 C-34.64996429 1286.22755829 -34.79992859 1285.58011658 -34.95443726 1284.91305542 C-36.92698683 1276.41163148 -39.01397109 1267.95660047 -41.28588867 1259.53076172 C-42.75385197 1254.04732383 -44.07293805 1248.53948313 -45.3125 1243 C-45.48418701 1242.23913086 -45.65587402 1241.47826172 -45.83276367 1240.69433594 C-46.4826821 1237.73393546 -47 1235.04073648 -47 1232 C-48.21042969 1231.76539063 -49.42085937 1231.53078125 -50.66796875 1231.2890625 C-57.07151319 1229.85608408 -63.15983713 1227.63213201 -69.3125 1225.375 C-69.94862213 1225.14234436 -70.58474426 1224.90968872 -71.24014282 1224.66998291 C-90.67218356 1217.52378441 -109.7115162 1209.06768129 -128.29296875 1199.94140625 C-129.17573486 1199.50908691 -130.05850098 1199.07676758 -130.96801758 1198.63134766 C-132.50332404 1197.86984562 -134.03146778 1197.09360434 -135.54956055 1196.29833984 C-139.91427338 1194.10977512 -142.30059489 1193.84137316 -147 1195 C-149.79148743 1196.30548566 -149.79148743 1196.30548566 -152.54296875 1198.03515625 C-153.60257813 1198.67130859 -154.6621875 1199.30746094 -155.75390625 1199.96289062 C-156.89848366 1200.66268492 -158.04301359 1201.36255688 -159.1875 1202.0625 C-160.39001734 1202.78811736 -161.59315429 1203.51270878 -162.796875 1204.23632812 C-165.29587479 1205.73969171 -167.79215678 1207.24742458 -170.28662109 1208.75830078 C-175.99978367 1212.21370925 -181.75176063 1215.60335144 -187.5 1219 C-189.74367503 1220.32911408 -191.98716393 1221.65854242 -194.23046875 1222.98828125 C-195.34341309 1223.64779785 -196.45635742 1224.30731445 -197.60302734 1224.98681641 C-200.46572971 1226.68336979 -203.32831988 1228.38011209 -206.19082642 1230.07699585 C-217.1234122 1236.55778024 -228.05713278 1243.03658695 -239 1249.5 C-241.69942672 1251.09513835 -244.39879379 1252.6903776 -247.09814453 1254.28564453 C-249.13269591 1255.4876149 -251.16755291 1256.68906804 -253.20263672 1257.89013672 C-256.03928658 1259.5645567 -258.8751245 1261.24033901 -261.7104187 1262.91705322 C-263.42332276 1263.92912337 -265.13755965 1264.93893664 -266.85180664 1265.94873047 C-272.51160066 1269.29361628 -278.12896336 1272.68826216 -283.6875 1276.19921875 C-284.74138916 1276.85994385 -285.79527832 1277.52066895 -286.88110352 1278.20141602 C-288.87726476 1279.45772678 -290.86520055 1280.72722987 -292.84350586 1282.01147461 C-294.17200562 1282.84497437 -294.17200562 1282.84497437 -295.52734375 1283.6953125 C-296.29812256 1284.19047363 -297.06890137 1284.68563477 -297.86303711 1285.19580078 C-300 1286 -300 1286 -301.88769531 1285.52148438 C-304.97611125 1283.29691108 -307.60337793 1280.66070898 -310.26953125 1277.9609375 C-310.868759 1277.36125153 -311.46798676 1276.76156555 -312.08537292 1276.14370728 C-313.35266537 1274.87339709 -314.61752983 1273.6006607 -315.88012695 1272.32568359 C-317.79009818 1270.3976141 -319.70779036 1268.47750968 -321.62695312 1266.55859375 C-322.86244877 1265.31817589 -324.09748903 1264.07730427 -325.33203125 1262.8359375 C-325.89581985 1262.27103607 -326.45960846 1261.70613464 -327.04048157 1261.12411499 C-329.85039059 1258.28144149 -332.55010338 1255.38859765 -335.14726257 1252.34976196 C-339.21687956 1247.68310667 -343.55443424 1243.31974385 -347.9453125 1238.95703125 C-348.81291199 1238.09089203 -349.68051147 1237.22475281 -350.57440186 1236.33236694 C-352.4464238 1234.4641315 -354.31931413 1232.59682006 -356.19378662 1230.73104858 C-359.16470542 1227.77377709 -362.13169453 1224.81258329 -365.09814453 1221.85083008 C-371.39578833 1215.56423519 -377.6976645 1209.2818909 -384 1203 C-390.80650487 1196.21557525 -397.61225099 1189.43039935 -404.41310692 1182.64031124 C-407.35515395 1179.70321144 -410.29961272 1176.76855867 -413.24601746 1173.83583069 C-415.51757991 1171.57355338 -417.78585457 1169.30798298 -420.0546875 1167.04296875 C-420.86008972 1166.24273285 -421.66549194 1165.44249695 -422.49530029 1164.61801147 C-426.64338039 1160.47031778 -430.62985684 1156.24896618 -434.43514252 1151.78351212 C-437.21298271 1148.61752947 -440.25461131 1145.7222736 -443.28125 1142.796875 C-444.63078605 1141.47454768 -445.97972814 1140.15161394 -447.328125 1138.828125 C-449.42720801 1136.7725668 -451.52981574 1134.7211899 -453.64257812 1132.6796875 C-455.70017139 1130.68834609 -457.7417731 1128.68174395 -459.78125 1126.671875 C-460.42066528 1126.0614032 -461.06008057 1125.4509314 -461.71887207 1124.82196045 C-463.47070312 1123.08105469 -463.47070312 1123.08105469 -466 1120 C-465.52870365 1116.19729154 -463.56488518 1113.27251599 -461.640625 1110.00390625 C-461.30034271 1109.42343536 -460.96006042 1108.84296448 -460.60946655 1108.24490356 C-459.4949085 1106.34761255 -458.37275207 1104.45495182 -457.25 1102.5625 C-456.46777622 1101.23617832 -455.68571391 1099.9097614 -454.90380859 1098.58325195 C-450.07440608 1090.40873342 -445.14227996 1082.3045391 -440.10327148 1074.25732422 C-435.04199419 1066.14461244 -430.17845161 1057.91814408 -425.3125 1049.6875 C-420.24465112 1041.11723904 -415.17841671 1032.55522323 -409.84155273 1024.14868164 C-404.75989708 1016.10497411 -399.92211686 1007.90917391 -395.05932617 999.73193359 C-391.20141458 993.25681631 -387.28653752 986.83291121 -383.2109375 980.4921875 C-382.45228807 979.3014916 -381.69398012 978.11057805 -380.93603516 976.91943359 C-379.51111606 974.68025244 -378.06379987 972.46267727 -376.59912109 970.24853516 C-375.96312988 969.24870605 -375.32713867 968.24887695 -374.671875 967.21875 C-374.1056543 966.35185547 -373.53943359 965.48496094 -372.95605469 964.59179688 C-371.6423959 961.0305605 -372.48486779 959.41677489 -374 956 C-374.82267592 954.26531677 -375.68497383 952.5489751 -376.58203125 950.8515625 C-382.79432537 938.88923916 -388.5486519 926.86235408 -393.625 914.375 C-393.8940213 913.71635956 -394.1630426 913.05771912 -394.44021606 912.37911987 C-397.57477676 904.66006878 -400.4204201 896.89700884 -402.9453125 888.95703125 C-403.18379913 888.21827759 -403.42228577 887.47952393 -403.66799927 886.71838379 C-404.81407418 883.16276775 -405.92137691 879.60379335 -406.95947266 876.01513672 C-407.36221651 874.7323101 -407.76628037 873.44989689 -408.171875 872.16796875 C-408.5028418 871.04672607 -408.83380859 869.9254834 -409.17480469 868.77026367 C-411.90792606 864.62195866 -415.40222228 864.11204395 -420 863 C-421.25865875 862.67458725 -422.5173175 862.3491745 -423.81411743 862.01390076 C-427.66993037 861.0242344 -431.53447722 860.07336862 -435.40226555 859.13171768 C-438.01736225 858.49502594 -440.63129941 857.85375039 -443.24501038 857.21139526 C-447.86835989 856.07592101 -452.49266537 854.94439732 -457.11730957 853.81420898 C-464.484474 852.013793 -471.85084337 850.21017434 -479.21591377 848.40121078 C-481.75729719 847.77805325 -484.29949623 847.15831457 -486.84178162 846.53884888 C-495.40353776 844.44344374 -503.91297772 842.22019841 -512.39713955 839.82990837 C-519.43622382 837.85558264 -526.51732846 836.080883 -533.62052917 834.35358429 C-535.85790588 833.80948328 -538.09437825 833.2617848 -540.33068848 832.71331787 C-545.0530411 831.55579573 -549.77646445 830.40268377 -554.5 829.25 C-560.03747594 827.89826464 -565.5744912 826.54468292 -571.11058044 825.18727875 C-573.31155876 824.64850504 -575.5132364 824.11265998 -577.71496582 823.57696533 C-579.051547 823.2496885 -580.38809665 822.92228284 -581.72460938 822.59472656 C-582.89165405 822.31002502 -584.05869873 822.02532349 -585.2611084 821.73199463 C-588 821 -588 821 -590 820 C-590 742.45 -590 664.9 -590 585 C-573.30286959 580.22939131 -556.46612879 576.02416832 -539.51953125 572.2421875 C-524.5525336 568.89583087 -509.64353729 565.27748571 -494.84008789 561.26782227 C-488.54695688 559.58759682 -482.2142254 558.13443182 -475.859375 556.7109375 C-467.71832764 554.88345681 -459.61511878 552.93706822 -451.52734375 550.88671875 C-450.49184891 550.6244902 -449.45635406 550.36226166 -448.38948059 550.09208679 C-444.15071698 549.01646529 -439.91288165 547.93731513 -435.67651367 546.85229492 C-432.52391686 546.04608113 -429.36954357 545.24715728 -426.21484375 544.44921875 C-424.78216408 544.07901863 -424.78216408 544.07901863 -423.32054138 543.70133972 C-422.43093216 543.47722916 -421.54132294 543.25311859 -420.62475586 543.0222168 C-419.46187294 542.72507027 -419.46187294 542.72507027 -418.27549744 542.42192078 C-415.80575676 541.96398359 -413.50630801 541.92757675 -411 542 C-410.83491943 541.27296875 -410.66983887 540.5459375 -410.49975586 539.796875 C-408.71774858 532.28100788 -406.38792885 525.18307499 -403.5625 518 C-403.12711914 516.88407471 -402.69173828 515.76814941 -402.24316406 514.6184082 C-396.03840823 498.85731843 -389.62733105 483.15521707 -382.0546875 467.99609375 C-381.72637939 467.33496078 -381.39807129 466.67382782 -381.05981445 465.99266052 C-379.46449878 462.78507821 -377.84862901 459.59135132 -376.19238281 456.41479492 C-375.61584961 455.26986572 -375.03931641 454.12493652 -374.4453125 452.9453125 C-373.92469238 451.94000488 -373.40407227 450.93469727 -372.86767578 449.89892578 C-371.56876883 445.55924623 -373.0372757 442.88334228 -375.02709961 438.99072266 C-375.58409546 438.08652588 -375.58409546 438.08652588 -376.15234375 437.1640625 C-376.80698608 436.08850098 -376.80698608 436.08850098 -377.47485352 434.99121094 C-377.95752686 434.21036133 -378.4402002 433.42951172 -378.9375 432.625 C-380.02965279 430.83134191 -381.12072292 429.03702432 -382.2109375 427.2421875 C-382.81389648 426.25186523 -383.41685547 425.26154297 -384.03808594 424.24121094 C-387.34634733 418.77574575 -390.60078105 413.27843241 -393.85794067 407.78240967 C-395.07644741 405.72646703 -396.29578605 403.67102001 -397.51538086 401.61572266 C-399.18121675 398.80840292 -400.84682004 396.00094544 -402.51220703 393.19335938 C-406.11279403 387.12377333 -409.71623834 381.05588405 -413.31954956 374.98791504 C-415.29649122 371.65868415 -417.27323532 368.32933597 -419.25 365 C-420.04166573 363.66666611 -420.83333239 362.33333278 -421.625 361 C-426.375 353 -426.375 353 -427.56225586 351.00039673 C-428.35471941 349.66573092 -429.14719991 348.33107518 -429.93969727 346.99642944 C-431.90681 343.68356485 -433.87363747 340.37053158 -435.83984375 337.05712891 C-439.54568775 330.81282809 -443.25451096 324.5703484 -446.97277832 318.33343506 C-448.72729885 315.39007699 -450.48028543 312.44580676 -452.2331543 309.50146484 C-453.06848784 308.09931508 -453.90457122 306.69761172 -454.74145508 305.29638672 C-455.9024607 303.35236638 -457.06086313 301.40681654 -458.21875 299.4609375 C-459.2077832 297.80263916 -459.2077832 297.80263916 -460.21679688 296.11083984 C-461.92967601 293.12268186 -463.49292436 290.09626011 -465 287 C-460.30797234 282.28244702 -455.61189388 277.56895389 -450.91308594 272.8581543 C-449.31776699 271.25783182 -447.72334986 269.6566098 -446.12988281 268.05444336 C-443.82858669 265.7409063 -441.52397929 263.43071101 -439.21875 261.12109375 C-438.51633179 260.41351425 -437.81391357 259.70593475 -437.09020996 258.97691345 C-436.41010864 258.2967366 -435.73000732 257.61655975 -435.02929688 256.91577148 C-434.44305542 256.32730942 -433.85681396 255.73884735 -433.25280762 255.1325531 C-431.30274601 253.28658547 -429.31205625 251.53253924 -427.27893066 249.77992249 C-422.82952931 245.90609624 -418.66351793 241.79002622 -414.5078125 237.60546875 C-413.7001947 236.79639069 -412.8925769 235.98731262 -412.06048584 235.15371704 C-410.31994465 233.4093918 -408.5805589 231.663913 -406.84222412 229.91738892 C-404.0861786 227.14849766 -401.32694953 224.38281417 -398.56689453 221.61791992 C-392.70827498 215.74825707 -386.85390931 209.87435991 -381 204 C-374.21279918 197.18908814 -367.42390742 190.37987917 -360.63079834 183.57485962 C-357.9212322 180.85884228 -355.21471172 178.13981515 -352.50830078 175.4206543 C-350.83641228 173.745131 -349.16438194 172.06974921 -347.4921875 170.39453125 C-346.74805603 169.64523346 -346.00392456 168.89593567 -345.23724365 168.12393188 C-341.22737336 164.11366133 -337.13023073 160.27594169 -332.81803894 156.5916357 C-329.54341812 153.72480854 -326.50124819 150.62373635 -323.4375 147.53515625 C-322.76074219 146.85698349 -322.08398438 146.17881073 -321.38671875 145.48008728 C-319.25542325 143.34325695 -317.12765782 141.20295177 -315 139.0625 C-313.54320221 137.60067877 -312.08617299 136.13908813 -310.62890625 134.67773438 C-307.08326027 131.121146 -303.54077261 127.56143984 -300 124 C-294.26397376 126.7841866 -288.73609362 129.65756236 -283.375 133.125 C-275.23585347 138.31373142 -266.93461824 143.21665887 -258.625 148.125 C-248.6933009 153.99515523 -238.80623249 159.92181398 -229 166 C-219.33572126 171.98815177 -209.59726057 177.83656408 -199.8125 183.625 C-190.38661636 189.20157428 -180.9765787 194.79917819 -171.625 200.5 C-170.71097412 201.05518311 -169.79694824 201.61036621 -168.85522461 202.18237305 C-164.46247545 204.85734986 -160.09698185 207.56644114 -155.765625 210.33984375 C-154.93853027 210.86320313 -154.11143555 211.3865625 -153.25927734 211.92578125 C-151.72033345 212.90152778 -150.18875188 213.88903093 -148.66650391 214.890625 C-147.99022949 215.31730469 -147.31395508 215.74398437 -146.6171875 216.18359375 C-146.03565918 216.56056396 -145.45413086 216.93753418 -144.85498047 217.32592773 C-141.51524951 218.53953621 -138.81027714 217.35688248 -135.67358398 215.9753418 C-134.87251221 215.55422119 -134.07144043 215.13310059 -133.24609375 214.69921875 C-132.3245752 214.22291016 -131.40305664 213.74660156 -130.45361328 213.25585938 C-128.96063721 212.47952148 -128.96063721 212.47952148 -127.4375 211.6875 C-102.88620128 199.21913735 -75.88914377 186.66122784 -48.91358948 180.26858521 C-45.83424071 179.28935508 -45.83424071 179.28935508 -44.74507141 176.61242676 C-44.50733505 175.60659546 -44.26959869 174.60076416 -44.0246582 173.56445312 C-43.73983582 172.41712204 -43.45501343 171.26979095 -43.16156006 170.08769226 C-42.73547455 168.20350334 -42.73547455 168.20350334 -42.30078125 166.28125 C-41.98341715 164.96486803 -41.66364448 163.64906468 -41.34161377 162.33381653 C-40.65957721 159.52790704 -39.99357483 156.71886008 -39.34011841 153.90615845 C-38.30754651 149.46266574 -37.24013671 145.02803031 -36.16577148 140.59448242 C-35.090041 136.14986477 -34.01568225 131.70497622 -32.9533844 127.25712585 C-30.50484623 117.01054359 -27.9180542 106.80898814 -25.18585205 96.63433838 C-21.49241382 82.87715793 -18.0101857 69.07212131 -14.6171875 55.23828125 C-14.42493277 54.45488939 -14.23267803 53.67149754 -14.0345974 52.86436653 C-12.08735985 44.92774457 -10.14604779 36.98972312 -8.21926117 29.04811001 C-7.49653473 26.07268957 -6.77013943 23.09817217 -6.04304886 20.12381554 C-5.70191707 18.72410883 -5.36256052 17.32396816 -5.02506638 15.9233799 C-4.55873298 13.98839544 -4.08603445 12.05494832 -3.61303711 10.12158203 C-3.34865341 9.03136749 -3.08426971 7.94115295 -2.81187439 6.81790161 C-2 4 -2 4 0 0 Z " fill="#149D80" transform="translate(855,589)"/>
<path d="M0 0 C1.30325729 -0.00101212 1.30325729 -0.00101212 2.63284302 -0.00204468 C28.22960496 0.02921257 53.14232379 2.44986547 78.125 8.25 C78.88119629 8.42144531 79.63739258 8.59289062 80.41650391 8.76953125 C85.01641984 9.82045237 89.57728381 10.99181335 94.125 12.25 C95.20201172 12.54463135 95.20201172 12.54463135 96.30078125 12.84521484 C132.79190993 22.95487379 168.09333932 38.39366996 199.125 60.25 C200.20394531 60.99378906 201.28289063 61.73757813 202.39453125 62.50390625 C215.36073615 71.52203856 227.5169661 81.54795899 239.125 92.25 C240.03121094 93.05308594 240.93742187 93.85617187 241.87109375 94.68359375 C253.99398125 105.51852508 265.13353223 117.42081944 275.125 130.25 C275.60646484 130.8589209 276.08792969 131.4678418 276.58398438 132.09521484 C292.50708662 152.2537056 306.01531718 174.04534633 317.13476562 197.20898438 C318.15552625 199.31291899 319.20846318 201.39852071 320.265625 203.484375 C330.44391336 223.86110674 337.52069326 245.4519752 342.52539062 267.63818359 C343.05934263 269.96400547 343.63466369 272.27249321 344.234375 274.58203125 C350.40049419 298.90716844 351.50260669 323.59109068 351.5 348.5625 C351.50181274 349.68790192 351.50362549 350.81330383 351.50549316 351.97280884 C351.5021828 370.12469872 350.55419886 387.99817941 347.25 405.875 C346.98630615 407.32422852 346.98630615 407.32422852 346.71728516 408.80273438 C346.19719642 411.62061892 345.66202139 414.43530295 345.125 417.25 C344.92100586 418.37293457 344.92100586 418.37293457 344.71289062 419.51855469 C335.87133975 467.74315575 313.09768096 515.06943214 284.125 554.25 C283.69477539 554.83330078 283.26455078 555.41660156 282.82128906 556.01757812 C264.89030777 580.17751076 243.9871502 602.6452166 219.97900391 620.83300781 C218.01473543 622.33427384 216.0749426 623.86371874 214.13671875 625.3984375 C185.78895477 647.70809776 153.59112519 664.02631164 119.78613281 676.28076172 C117.56688728 677.08905573 115.35584321 677.91401814 113.1484375 678.75390625 C63.95243312 697.13039969 5.82843044 701.16065281 -45.875 693.25 C-46.66729004 693.13253418 -47.45958008 693.01506836 -48.27587891 692.89404297 C-52.43656824 692.26319027 -56.56419488 691.52459721 -60.68847656 690.68896484 C-62.23005787 690.37947811 -63.77394707 690.08138009 -65.31933594 689.79150391 C-97.94886368 683.65744566 -129.61339911 671.86366137 -158.875 656.25 C-159.55868652 655.89147949 -160.24237305 655.53295898 -160.94677734 655.16357422 C-182.46232278 643.83883452 -202.23986241 629.82148046 -220.875 614.25 C-221.885625 613.42628906 -222.89625 612.60257813 -223.9375 611.75390625 C-231.57097872 605.45282071 -238.66943414 598.66489928 -245.6875 591.6875 C-246.55874512 590.82543945 -247.42999023 589.96337891 -248.32763672 589.07519531 C-254.26638709 583.10820283 -259.62970916 576.82919771 -264.875 570.25 C-265.87570944 569.04161629 -266.879162 567.83549283 -267.88671875 566.6328125 C-280.51308991 551.35458 -291.27059272 534.56954347 -300.875 517.25 C-301.34115723 516.41339844 -301.80731445 515.57679688 -302.28759766 514.71484375 C-320.51951446 481.69915521 -332.83232379 446.1168919 -339.5625 409.0625 C-339.76512451 407.94713867 -339.96774902 406.83177734 -340.17651367 405.68261719 C-340.78297707 402.21031693 -341.33948415 398.73393344 -341.875 395.25 C-342.06481445 394.06092041 -342.25462891 392.87184082 -342.45019531 391.64672852 C-344.26614096 378.65816914 -344.2472107 365.64972117 -344.24560547 352.5534668 C-344.24994189 348.61527014 -344.28626572 344.67823123 -344.32421875 340.74023438 C-344.42793582 317.5222978 -342.26995017 294.57980067 -336.625 272 C-336.32835449 270.77732422 -336.03170898 269.55464844 -335.72607422 268.29492188 C-318.43938623 198.57164672 -279.92489927 128.38155173 -222.55859375 83.375 C-220.09433185 81.42367762 -217.71947644 79.39375357 -215.3515625 77.32739258 C-175.33136845 42.59645283 -123.34002998 19.23149591 -71.875 8.25 C-69.75253318 7.7828745 -67.6301377 7.31542477 -65.5078125 6.84765625 C-43.70395822 2.10981611 -22.29001327 0.01572027 0 0 Z " fill="#FEFEFE" transform="translate(965.875,945.75)"/>
<path d="M0 0 C2.40038967 0.00503363 4.80078039 0.00959318 7.20117188 0.01367188 C12.98830463 0.02451021 18.77539715 0.04109559 24.5625 0.0625 C25.38594008 48.32031144 22.09261287 96.41454618 12.25439453 143.70849609 C11.63428665 146.71450953 11.04090632 149.72357187 10.46484375 152.73828125 C6.19144508 175.06838386 -0.17632309 196.54255077 -7.4375 218.0625 C-7.8195459 219.19478027 -8.2015918 220.32706055 -8.59521484 221.49365234 C-23.25724079 264.48107825 -43.9767659 305.52422885 -72.4375 341.0625 C-73.07558594 341.89265625 -73.71367188 342.7228125 -74.37109375 343.578125 C-79.35686599 350.00469213 -84.84572334 355.89893464 -90.4140625 361.81640625 C-92.64569256 364.19387232 -94.78755984 366.61901219 -96.875 369.125 C-105.24286946 378.80099793 -115.41535586 387.18087038 -125.4375 395.0625 C-126.44167969 395.86171875 -127.44585938 396.6609375 -128.48046875 397.484375 C-164.56691074 425.94355639 -206.9248186 446.13117717 -250.19873047 460.953125 C-253.15899928 461.96710521 -256.11310596 462.99719759 -259.06640625 464.03125 C-271.6846618 468.39991941 -284.45725716 471.93991523 -297.4375 475.0625 C-298.80116699 475.39096924 -298.80116699 475.39096924 -300.19238281 475.72607422 C-317.12445266 479.73885934 -334.24925563 482.42376788 -351.4375 485.0625 C-352.57026367 485.2392627 -353.70302734 485.41602539 -354.87011719 485.59814453 C-392.82654266 491.50608624 -430.09607169 492.35888419 -468.4375 492.0625 C-469.07611545 435.5124506 -465.72027544 380.40821021 -453.4375 325.0625 C-453.25477539 324.21316895 -453.07205078 323.36383789 -452.88378906 322.48876953 C-450.73089498 312.48179891 -447.9389116 302.71907051 -444.92578125 292.94140625 C-444.0072823 289.95904774 -443.12128189 286.97347178 -442.29296875 283.96484375 C-432.62173116 249.02248557 -417.30624423 214.97124219 -398.75 183.875 C-398.14446289 182.85986328 -397.53892578 181.84472656 -396.91503906 180.79882812 C-392.75830633 173.95430019 -388.23110863 167.47412211 -383.4375 161.0625 C-382.62588018 159.95864342 -381.81459586 158.85453993 -381.00390625 157.75 C-373.14017571 147.20371031 -364.81659881 137.22552089 -355.85791016 127.60058594 C-354.41648411 126.03974302 -352.99324669 124.4640289 -351.57421875 122.8828125 C-347.08627332 117.89363207 -342.59025255 113.06623755 -337.43359375 108.75 C-335.19884444 106.86074031 -333.07840806 104.8698561 -330.9375 102.875 C-324.14842061 96.76792858 -316.83758018 91.39813067 -309.4375 86.0625 C-308.72480957 85.54671387 -308.01211914 85.03092773 -307.27783203 84.49951172 C-265.2677168 54.32561708 -216.40063161 33.11809668 -166.26660156 20.79663086 C-163.08235684 19.97034299 -159.93605048 19.04163777 -156.78125 18.109375 C-148.99244348 15.86626213 -141.13266991 14.18968991 -133.1875 12.625 C-132.43860504 12.4763147 -131.68971008 12.32762939 -130.91812134 12.17443848 C-109.01029065 7.84592742 -86.96193101 4.61013704 -64.75 2.3125 C-63.64293701 2.19680664 -62.53587402 2.08111328 -61.39526367 1.96191406 C-40.9745567 0.00019055 -20.49583349 -0.07608595 0 0 Z " fill="#149D80" transform="translate(1478.4375,10.9375)"/>
<path d="M0 0 C73.5499339 -0.85187913 150.22321196 13.53194516 206 65 C206.53077148 65.48549316 207.06154297 65.97098633 207.60839844 66.47119141 C221.1527962 78.98923817 231.78445113 94.09889008 241 110 C241.56364258 110.96462158 241.56364258 110.96462158 242.13867188 111.94873047 C270.78897157 161.61504289 278.69153793 220.60242231 278 277 C258.24513768 277.40237087 238.64532266 277.55312279 219 275.1875 C217.95312515 275.06320618 217.95312515 275.06320618 216.88510132 274.93640137 C170.71512147 269.33639255 124.36580144 255.4602069 87 227 C86.13246094 226.34515625 85.26492188 225.6903125 84.37109375 225.015625 C62.57921759 208.08582072 45.68502533 187.45921696 33 163 C32.61134766 162.26458984 32.22269531 161.52917969 31.82226562 160.77148438 C19.02452704 136.3094623 11.24131321 110.00283348 6 83 C5.63725398 81.21864093 5.27400093 79.437385 4.91015625 77.65625 C3.61193406 71.1424088 2.74296344 64.59835647 2 58 C1.90686523 57.18354004 1.81373047 56.36708008 1.71777344 55.52587891 C-0.30807802 37.02195774 -0.21525053 18.58439963 0 0 Z " fill="#149D80" transform="translate(697,213)"/>
</svg>
